<svg width="256" height="256" viewBox="0 0 256 256" fill="none" xmlns="http://www.w3.org/2000/svg">
<path d="M0 32C0 14.3269 14.3269 0 32 0H224C241.673 0 256 14.3269 256 32V224C256 241.673 241.673 256 224 256H32C14.3269 256 0 241.673 0 224V32Z" fill="white"/>
<path d="M93.3257 80.35V133H80.5007V111.325H60.5507V133H47.7257V80.35H60.5507V100.975H80.5007V80.35H93.3257Z" fill="#1360AB"/>
<path d="M162.209 80.35V133H149.384V101.425L137.609 133H127.259L115.409 101.35V133H102.584V80.35H117.734L132.509 116.8L147.134 80.35H162.209Z" fill="#1360AB"/>
<path d="M190.482 133.525C186.632 133.525 183.182 132.9 180.132 131.65C177.082 130.4 174.632 128.55 172.782 126.1C170.982 123.65 170.032 120.7 169.932 117.25H183.582C183.782 119.2 184.457 120.7 185.607 121.75C186.757 122.75 188.257 123.25 190.107 123.25C192.007 123.25 193.507 122.825 194.607 121.975C195.707 121.075 196.257 119.85 196.257 118.3C196.257 117 195.807 115.925 194.907 115.075C194.057 114.225 192.982 113.525 191.682 112.975C190.432 112.425 188.632 111.8 186.282 111.1C182.882 110.05 180.107 109 177.957 107.95C175.807 106.9 173.957 105.35 172.407 103.3C170.857 101.25 170.082 98.575 170.082 95.275C170.082 90.375 171.857 86.55 175.407 83.8C178.957 81 183.582 79.6 189.282 79.6C195.082 79.6 199.757 81 203.307 83.8C206.857 86.55 208.757 90.4 209.007 95.35H195.132C195.032 93.65 194.407 92.325 193.257 91.375C192.107 90.375 190.632 89.875 188.832 89.875C187.282 89.875 186.032 90.3 185.082 91.15C184.132 91.95 183.657 93.125 183.657 94.675C183.657 96.375 184.457 97.7 186.057 98.65C187.657 99.6 190.157 100.625 193.557 101.725C196.957 102.875 199.707 103.975 201.807 105.025C203.957 106.075 205.807 107.6 207.357 109.6C208.907 111.6 209.682 114.175 209.682 117.325C209.682 120.325 208.907 123.05 207.357 125.5C205.857 127.95 203.657 129.9 200.757 131.35C197.857 132.8 194.432 133.525 190.482 133.525Z" fill="#1360AB"/>
<path d="M52.5586 151.065V173.75H48.0086V151.065H52.5586Z" fill="black"/>
<path d="M61.604 151.065V173.75H57.054V151.065H61.604Z" fill="black"/>
<path d="M81.5369 151.065V154.738H75.4919V173.75H70.9419V154.738H64.8969V151.065H81.5369Z" fill="black"/>
<path d="M97.1509 151.065V173.75H92.6009V151.065H97.1509Z" fill="black"/>
<path d="M121.049 173.75H116.499L106.196 158.182V173.75H101.646V151.033H106.196L116.499 166.632V151.033H121.049V173.75Z" fill="black"/>
<path d="M133.475 151.065C135.859 151.065 137.949 151.531 139.748 152.462C141.568 153.394 142.965 154.727 143.94 156.46C144.937 158.172 145.435 160.165 145.435 162.44C145.435 164.715 144.937 166.708 143.94 168.42C142.965 170.11 141.568 171.421 139.748 172.352C137.949 173.284 135.859 173.75 133.475 173.75H125.545V151.065H133.475ZM133.313 169.883C135.696 169.883 137.538 169.232 138.838 167.932C140.138 166.632 140.788 164.802 140.788 162.44C140.788 160.078 140.138 158.237 138.838 156.915C137.538 155.572 135.696 154.9 133.313 154.9H130.095V169.883H133.313Z" fill="black"/>
<path d="M159.371 173.977C157.248 173.977 155.298 173.479 153.521 172.482C151.744 171.486 150.336 170.11 149.296 168.355C148.256 166.578 147.736 164.574 147.736 162.342C147.736 160.132 148.256 158.15 149.296 156.395C150.336 154.618 151.744 153.232 153.521 152.235C155.298 151.238 157.248 150.74 159.371 150.74C161.516 150.74 163.466 151.238 165.221 152.235C166.998 153.232 168.395 154.618 169.414 156.395C170.454 158.15 170.974 160.132 170.974 162.342C170.974 164.574 170.454 166.578 169.414 168.355C168.395 170.11 166.998 171.486 165.221 172.482C163.444 173.479 161.494 173.977 159.371 173.977ZM159.371 169.915C160.736 169.915 161.939 169.612 162.979 169.005C164.019 168.377 164.831 167.488 165.416 166.34C166.001 165.192 166.294 163.859 166.294 162.342C166.294 160.826 166.001 159.504 165.416 158.378C164.831 157.229 164.019 156.352 162.979 155.745C161.939 155.138 160.736 154.835 159.371 154.835C158.006 154.835 156.793 155.138 155.731 155.745C154.691 156.352 153.879 157.229 153.294 158.378C152.709 159.504 152.416 160.826 152.416 162.342C152.416 163.859 152.709 165.192 153.294 166.34C153.879 167.488 154.691 168.377 155.731 169.005C156.793 169.612 158.006 169.915 159.371 169.915Z" fill="black"/>
<path d="M186.059 173.75L181.054 164.91H178.909V173.75H174.359V151.065H182.874C184.629 151.065 186.124 151.379 187.359 152.007C188.594 152.614 189.515 153.448 190.121 154.51C190.75 155.55 191.064 156.72 191.064 158.02C191.064 159.515 190.63 160.869 189.764 162.083C188.897 163.274 187.608 164.098 185.896 164.553L191.324 173.75H186.059ZM178.909 161.497H182.711C183.946 161.497 184.867 161.205 185.474 160.62C186.08 160.013 186.384 159.179 186.384 158.117C186.384 157.077 186.08 156.276 185.474 155.712C184.867 155.127 183.946 154.835 182.711 154.835H178.909V161.497Z" fill="black"/>
<path d="M199.729 154.738V160.425H207.367V164.033H199.729V170.045H208.342V173.75H195.179V151.033H208.342V154.738H199.729Z" fill="black"/>
</svg>
