<svg width="1024" height="1024" viewBox="0 0 1024 1024" fill="none" xmlns="http://www.w3.org/2000/svg">
<path d="M0 128C0 57.3076 57.3076 0 128 0H896C966.692 0 1024 57.3076 1024 128V896C1024 966.692 966.692 1024 896 1024H128C57.3076 1024 0 966.692 0 896V128Z" fill="white"/>
<path d="M345.563 305.28V558H284.003V453.96H188.243V558H126.683V305.28H188.243V404.28H284.003V305.28H345.563Z" fill="#1360AB"/>
<path d="M676.204 305.28V558H614.644V406.44L558.124 558H508.444L451.564 406.08V558H390.004V305.28H462.724L533.644 480.24L603.844 305.28H676.204Z" fill="#1360AB"/>
<path d="M811.912 560.52C793.432 560.52 776.872 557.52 762.232 551.52C747.592 545.52 735.832 536.64 726.952 524.88C718.312 513.12 713.752 498.96 713.272 482.4H778.792C779.752 491.76 782.992 498.96 788.512 504C794.032 508.8 801.232 511.2 810.112 511.2C819.232 511.2 826.432 509.16 831.712 505.08C836.992 500.76 839.632 494.88 839.632 487.44C839.632 481.2 837.472 476.04 833.152 471.96C829.072 467.88 823.912 464.52 817.672 461.88C811.672 459.24 803.032 456.24 791.752 452.88C775.432 447.84 762.112 442.8 751.792 437.76C741.472 432.72 732.592 425.28 725.152 415.44C717.712 405.6 713.992 392.76 713.992 376.92C713.992 353.4 722.512 335.04 739.552 321.84C756.592 308.4 778.792 301.68 806.152 301.68C833.992 301.68 856.432 308.4 873.472 321.84C890.512 335.04 899.632 353.52 900.832 377.28H834.232C833.752 369.12 830.752 362.76 825.232 358.2C819.712 353.4 812.632 351 803.992 351C796.552 351 790.552 353.04 785.992 357.12C781.432 360.96 779.152 366.6 779.152 374.04C779.152 382.2 782.992 388.56 790.672 393.12C798.352 397.68 810.352 402.6 826.672 407.88C842.992 413.4 856.192 418.68 866.272 423.72C876.592 428.76 885.472 436.08 892.912 445.68C900.352 455.28 904.072 467.64 904.072 482.76C904.072 497.16 900.352 510.24 892.912 522C885.712 533.76 875.152 543.12 861.232 550.08C847.312 557.04 830.872 560.52 811.912 560.52Z" fill="#1360AB"/>
<path d="M148.024 609.554V719H126.072V609.554H148.024Z" fill="black"/>
<path d="M191.665 609.554V719H169.713V609.554H191.665Z" fill="black"/>
<path d="M287.834 609.554V627.272H258.669V719H236.717V627.272H207.552V609.554H287.834Z" fill="black"/>
<path d="M363.165 609.554V719H341.213V609.554H363.165Z" fill="black"/>
<path d="M478.463 719H456.511L406.806 643.893V719H384.854V609.397H406.806L456.511 684.661V609.397H478.463V719Z" fill="black"/>
<path d="M538.416 609.554C549.915 609.554 560.002 611.801 568.678 616.296C577.459 620.791 584.202 627.22 588.906 635.582C593.714 643.841 596.118 653.458 596.118 664.434C596.118 675.41 593.714 685.027 588.906 693.285C584.202 701.438 577.459 707.763 568.678 712.258C560.002 716.753 549.915 719 538.416 719H500.157V609.554H538.416ZM537.632 700.341C549.131 700.341 558.016 697.205 564.288 690.933C570.56 684.661 573.696 675.828 573.696 664.434C573.696 653.039 570.56 644.154 564.288 637.778C558.016 631.297 549.131 628.056 537.632 628.056H522.109V700.341H537.632Z" fill="black"/>
<path d="M663.354 720.098C653.109 720.098 643.701 717.693 635.13 712.885C626.558 708.076 619.763 701.438 614.746 692.971C609.728 684.399 607.219 674.73 607.219 663.963C607.219 653.301 609.728 643.736 614.746 635.269C619.763 626.697 626.558 620.007 635.13 615.198C643.701 610.39 653.109 607.986 663.354 607.986C673.702 607.986 683.11 610.39 691.578 615.198C700.149 620.007 706.892 626.697 711.805 635.269C716.822 643.736 719.331 653.301 719.331 663.963C719.331 674.73 716.822 684.399 711.805 692.971C706.892 701.438 700.149 708.076 691.578 712.885C683.006 717.693 673.598 720.098 663.354 720.098ZM663.354 700.498C669.939 700.498 675.741 699.034 680.758 696.107C685.776 693.076 689.696 688.79 692.518 683.25C695.341 677.709 696.752 671.281 696.752 663.963C696.752 656.646 695.341 650.269 692.518 644.834C689.696 639.293 685.776 635.06 680.758 632.133C675.741 629.206 669.939 627.742 663.354 627.742C656.768 627.742 650.914 629.206 645.792 632.133C640.774 635.06 636.854 639.293 634.032 644.834C631.21 650.269 629.798 656.646 629.798 663.963C629.798 671.281 631.21 677.709 634.032 683.25C636.854 688.79 640.774 693.076 645.792 696.107C650.914 699.034 656.768 700.498 663.354 700.498Z" fill="black"/>
<path d="M792.111 719L767.964 676.35H757.615V719H735.663V609.554H776.745C785.212 609.554 792.425 611.069 798.383 614.101C804.341 617.028 808.784 621.052 811.711 626.174C814.742 631.192 816.258 636.837 816.258 643.109C816.258 650.322 814.167 656.855 809.986 662.709C805.805 668.458 799.585 672.43 791.327 674.626L817.513 719H792.111ZM757.615 659.886H775.961C781.919 659.886 786.362 658.475 789.289 655.653C792.216 652.726 793.679 648.701 793.679 643.579C793.679 638.562 792.216 634.694 789.289 631.976C786.362 629.154 781.919 627.742 775.961 627.742H757.615V659.886Z" fill="black"/>
<path d="M858.065 627.272V654.712H894.913V672.117H858.065V701.125H899.617V719H836.113V609.397H899.617V627.272H858.065Z" fill="black"/>
</svg>
