<svg width="1024" height="1024" viewBox="0 0 1024 1024" fill="none" xmlns="http://www.w3.org/2000/svg">
<path d="M0 128C0 57.3076 57.3076 0 128 0H896C966.692 0 1024 57.3076 1024 128V896C1024 966.692 966.692 1024 896 1024H128C57.3076 1024 0 966.692 0 896V128Z" fill="white"/>
<path d="M373.303 321.4V532H322.003V445.3H242.203V532H190.903V321.4H242.203V403.9H322.003V321.4H373.303Z" fill="#1360AB"/>
<path d="M648.836 321.4V532H597.536V405.7L550.436 532H509.036L461.636 405.4V532H410.336V321.4H470.936L530.036 467.2L588.536 321.4H648.836Z" fill="#1360AB"/>
<path d="M761.927 534.1C746.527 534.1 732.727 531.6 720.527 526.6C708.327 521.6 698.527 514.2 691.127 504.4C683.927 494.6 680.127 482.8 679.727 469H734.327C735.127 476.8 737.827 482.8 742.427 487C747.027 491 753.027 493 760.427 493C768.027 493 774.027 491.3 778.427 487.9C782.827 484.3 785.027 479.4 785.027 473.2C785.027 468 783.227 463.7 779.627 460.3C776.227 456.9 771.927 454.1 766.727 451.9C761.727 449.7 754.527 447.2 745.127 444.4C731.527 440.2 720.427 436 711.827 431.8C703.227 427.6 695.827 421.4 689.627 413.2C683.427 405 680.327 394.3 680.327 381.1C680.327 361.5 687.427 346.2 701.627 335.2C715.827 324 734.327 318.4 757.127 318.4C780.327 318.4 799.027 324 813.227 335.2C827.427 346.2 835.027 361.6 836.027 381.4H780.527C780.127 374.6 777.627 369.3 773.027 365.5C768.427 361.5 762.527 359.5 755.327 359.5C749.127 359.5 744.127 361.2 740.327 364.6C736.527 367.8 734.627 372.5 734.627 378.7C734.627 385.5 737.827 390.8 744.227 394.6C750.627 398.4 760.627 402.5 774.227 406.9C787.827 411.5 798.827 415.9 807.227 420.1C815.827 424.3 823.227 430.4 829.427 438.4C835.627 446.4 838.727 456.7 838.727 469.3C838.727 481.3 835.627 492.2 829.427 502C823.427 511.8 814.627 519.6 803.027 525.4C791.427 531.2 777.727 534.1 761.927 534.1Z" fill="#1360AB"/>
<path d="M210.234 604.26V695H192.034V604.26H210.234Z" fill="black"/>
<path d="M246.416 604.26V695H228.216V604.26H246.416Z" fill="black"/>
<path d="M326.148 604.26V618.95H301.968V695H283.768V618.95H259.588V604.26H326.148Z" fill="black"/>
<path d="M388.604 604.26V695H370.404V604.26H388.604Z" fill="black"/>
<path d="M484.195 695H465.995L424.785 632.73V695H406.585V604.13H424.785L465.995 666.53V604.13H484.195V695Z" fill="black"/>
<path d="M533.901 604.26C543.434 604.26 551.798 606.123 558.991 609.85C566.271 613.577 571.861 618.907 575.761 625.84C579.748 632.687 581.741 640.66 581.741 649.76C581.741 658.86 579.748 666.833 575.761 673.68C571.861 680.44 566.271 685.683 558.991 689.41C551.798 693.137 543.434 695 533.901 695H502.181V604.26H533.901ZM533.251 679.53C542.784 679.53 550.151 676.93 555.351 671.73C560.551 666.53 563.151 659.207 563.151 649.76C563.151 640.313 560.551 632.947 555.351 627.66C550.151 622.287 542.784 619.6 533.251 619.6H520.381V679.53H533.251Z" fill="black"/>
<path d="M637.485 695.91C628.991 695.91 621.191 693.917 614.085 689.93C606.978 685.943 601.345 680.44 597.185 673.42C593.025 666.313 590.945 658.297 590.945 649.37C590.945 640.53 593.025 632.6 597.185 625.58C601.345 618.473 606.978 612.927 614.085 608.94C621.191 604.953 628.991 602.96 637.485 602.96C646.065 602.96 653.865 604.953 660.885 608.94C667.991 612.927 673.581 618.473 677.655 625.58C681.815 632.6 683.895 640.53 683.895 649.37C683.895 658.297 681.815 666.313 677.655 673.42C673.581 680.44 667.991 685.943 660.885 689.93C653.778 693.917 645.978 695.91 637.485 695.91ZM637.485 679.66C642.945 679.66 647.755 678.447 651.915 676.02C656.075 673.507 659.325 669.953 661.665 665.36C664.005 660.767 665.175 655.437 665.175 649.37C665.175 643.303 664.005 638.017 661.665 633.51C659.325 628.917 656.075 625.407 651.915 622.98C647.755 620.553 642.945 619.34 637.485 619.34C632.025 619.34 627.171 620.553 622.925 622.98C618.765 625.407 615.515 628.917 613.175 633.51C610.835 638.017 609.665 643.303 609.665 649.37C609.665 655.437 610.835 660.767 613.175 665.36C615.515 669.953 618.765 673.507 622.925 676.02C627.171 678.447 632.025 679.66 637.485 679.66Z" fill="black"/>
<path d="M744.235 695L724.215 659.64H715.635V695H697.435V604.26H731.495C738.515 604.26 744.495 605.517 749.435 608.03C754.375 610.457 758.058 613.793 760.485 618.04C762.998 622.2 764.255 626.88 764.255 632.08C764.255 638.06 762.522 643.477 759.055 648.33C755.588 653.097 750.432 656.39 743.585 658.21L765.295 695H744.235ZM715.635 645.99H730.845C735.785 645.99 739.468 644.82 741.895 642.48C744.322 640.053 745.535 636.717 745.535 632.47C745.535 628.31 744.322 625.103 741.895 622.85C739.468 620.51 735.785 619.34 730.845 619.34H715.635V645.99Z" fill="black"/>
<path d="M798.916 618.95V641.7H829.466V656.13H798.916V680.18H833.366V695H780.716V604.13H833.366V618.95H798.916Z" fill="black"/>
</svg>
