<svg width="256" height="116" viewBox="0 0 256 116" fill="none" xmlns="http://www.w3.org/2000/svg">
<path d="M86.3908 6.5418V69.4506H71.0008V43.5523H47.0608V69.4506H31.6708V6.5418H47.0608V31.1856H71.0008V6.5418H86.3908Z" fill="#1360AB"/>
<path d="M169.051 6.5418V69.4506H153.661V31.7233L139.531 69.4506H127.111L112.891 31.6336V69.4506H97.5009V6.5418H115.681L133.411 50.0941L150.961 6.5418H169.051Z" fill="#1360AB"/>
<path d="M202.978 70.0779C198.358 70.0779 194.218 69.3312 190.558 67.8376C186.898 66.344 183.958 64.1336 181.738 61.2062C179.578 58.2788 178.438 54.754 178.318 50.6318H194.698C194.938 52.9617 195.748 54.754 197.128 56.0086C198.508 57.2034 200.308 57.8009 202.528 57.8009C204.808 57.8009 206.608 57.293 207.928 56.2774C209.248 55.2021 209.908 53.7384 209.908 51.8864C209.908 50.333 209.368 49.0486 208.288 48.033C207.268 47.0173 205.978 46.1809 204.418 45.5238C202.918 44.8666 200.758 44.1198 197.938 43.2834C193.858 42.0288 190.528 40.7742 187.948 39.5197C185.368 38.2651 183.148 36.413 181.288 33.9636C179.428 31.5142 178.498 28.3179 178.498 24.3749C178.498 18.5202 180.628 13.9499 184.888 10.664C189.148 7.31845 194.698 5.64566 201.538 5.64566C208.498 5.64566 214.108 7.31845 218.368 10.664C222.628 13.9499 224.908 18.55 225.208 24.4645H208.558C208.438 22.4333 207.688 20.8501 206.308 19.715C204.928 18.5202 203.158 17.9227 200.998 17.9227C199.138 17.9227 197.638 18.4306 196.498 19.4462C195.358 20.4021 194.788 21.806 194.788 23.658C194.788 25.6893 195.748 27.2724 197.668 28.4076C199.588 29.5427 202.588 30.7674 206.668 32.0817C210.748 33.4558 214.048 34.7701 216.568 36.0247C219.148 37.2793 221.368 39.1015 223.228 41.4912C225.088 43.8809 226.018 46.9576 226.018 50.7214C226.018 54.3059 225.088 57.5619 223.228 60.4893C221.428 63.4167 218.788 65.7466 215.308 67.4791C211.828 69.2117 207.718 70.0779 202.978 70.0779Z" fill="#1360AB"/>
<path d="M37.0061 82.2837V109.528H31.5181V82.2837H37.0061Z" fill="black"/>
<path d="M47.9162 82.2837V109.528H42.4282V82.2837H47.9162Z" fill="black"/>
<path d="M71.9584 82.2837V86.6943H64.6672V109.528H59.1792V86.6943H51.888V82.2837H71.9584Z" fill="black"/>
<path d="M90.7912 82.2837V109.528H85.3032V82.2837H90.7912Z" fill="black"/>
<path d="M119.616 109.528H114.128L101.701 90.8317V109.528H96.2134V82.2447H101.701L114.128 100.98V82.2447H119.616V109.528Z" fill="black"/>
<path d="M134.604 82.2837C137.479 82.2837 140.001 82.8432 142.17 83.9621C144.365 85.081 146.05 86.6813 147.226 88.763C148.429 90.8187 149.03 93.2126 149.03 95.9448C149.03 98.6771 148.429 101.071 147.226 103.127C146.05 105.156 144.365 106.731 142.17 107.85C140.001 108.968 137.479 109.528 134.604 109.528H125.039V82.2837H134.604ZM134.408 104.883C137.283 104.883 139.504 104.102 141.072 102.541C142.64 100.98 143.424 98.7812 143.424 95.9448C143.424 93.1085 142.64 90.8967 141.072 89.3094C139.504 87.6961 137.283 86.8895 134.408 86.8895H130.527V104.883H134.408Z" fill="black"/>
<path d="M165.838 109.801C163.277 109.801 160.925 109.203 158.782 108.006C156.639 106.809 154.941 105.156 153.686 103.049C152.432 100.915 151.805 98.5079 151.805 95.8277C151.805 93.1736 152.432 90.7927 153.686 88.6849C154.941 86.5512 156.639 84.8858 158.782 83.6889C160.925 82.4919 163.277 81.8934 165.838 81.8934C168.426 81.8934 170.778 82.4919 172.894 83.6889C175.037 84.8858 176.723 86.5512 177.951 88.6849C179.206 90.7927 179.833 93.1736 179.833 95.8277C179.833 98.5079 179.206 100.915 177.951 103.049C176.723 105.156 175.037 106.809 172.894 108.006C170.751 109.203 168.399 109.801 165.838 109.801ZM165.838 104.922C167.485 104.922 168.935 104.558 170.19 103.829C171.444 103.075 172.424 102.008 173.13 100.629C173.835 99.2495 174.188 97.6492 174.188 95.8277C174.188 94.0063 173.835 92.419 173.13 91.0659C172.424 89.6868 171.444 88.6329 170.19 87.9043C168.935 87.1757 167.485 86.8114 165.838 86.8114C164.192 86.8114 162.729 87.1757 161.448 87.9043C160.194 88.6329 159.214 89.6868 158.508 91.0659C157.802 92.419 157.45 94.0063 157.45 95.8277C157.45 97.6492 157.802 99.2495 158.508 100.629C159.214 102.008 160.194 103.075 161.448 103.829C162.729 104.558 164.192 104.922 165.838 104.922Z" fill="black"/>
<path d="M198.028 109.528L191.991 98.9113H189.404V109.528H183.916V82.2837H194.186C196.303 82.2837 198.106 82.661 199.596 83.4157C201.085 84.1442 202.196 85.1461 202.928 86.4211C203.686 87.6701 204.065 89.0753 204.065 90.6365C204.065 92.432 203.542 94.0583 202.497 95.5155C201.451 96.9467 199.896 97.9355 197.832 98.4819L204.378 109.528H198.028ZM189.404 94.8129H193.99C195.48 94.8129 196.59 94.4616 197.322 93.7591C198.054 93.0305 198.42 92.0287 198.42 90.7536C198.42 89.5046 198.054 88.5418 197.322 87.8653C196.59 87.1627 195.48 86.8114 193.99 86.8114H189.404V94.8129Z" fill="black"/>
<path d="M214.516 86.6943V93.5249H223.728V97.8574H214.516V105.078H224.904V109.528H209.028V82.2447H224.904V86.6943H214.516Z" fill="black"/>
</svg>
